<svg xmlns="http://www.w3.org/2000/svg" xmlns:xlink="http://www.w3.org/1999/xlink" width="164" height="50" viewBox="0 0 164 50">
  <defs>
    <clipPath id="clip-path">
      <rect id="Rectangle_26" data-name="Rectangle 26" width="164" height="50" fill="#fff"/>
    </clipPath>
  </defs>
  <g id="Group_5" data-name="Group 5" transform="translate(-2553 872)">
    <g id="logo-green" transform="translate(2553 -872)" clip-path="url(#clip-path)">
      <path id="Path_7" data-name="Path 7" d="M11.577,9.061H18.9q5.016,0,7.2,5.237l.214,1.444q0,5.7-6.323,7.287l-1.7.195H6.624v.081q2.617,2.887,5.258,2.884h7.2q4.226,0,5.564,2.552a3.936,3.936,0,0,1,.574,2.051v.469l-.482.444H12.46q-7.51,0-11.366-6.764A10.684,10.684,0,0,1,0,20.148q0-6.239,7.019-10.09a15.23,15.23,0,0,1,4.558-1ZM6.836,17.819H17.808q2.37,0,2.37-2.076c0-.5-.524-.9-1.58-1.195H12.155a6,6,0,0,0-5.319,3.271ZM38.249,8.977H51.983c.223.074.331.289.331.639v.634q0,2.946-3.921,4.19l-1.153.108H40.1a6.572,6.572,0,0,0-6.473,3.994L33.289,19.7v.943q0,3.5,4.71,5.265l1.975.224H47.24A4.891,4.891,0,0,1,52.194,29.6l.121.635v1.052l-.454.418H39.614q-8.091,0-12.221-8.01a12.839,12.839,0,0,1-.575-3.245v-.938q0-5.742,6.806-9.482a11.792,11.792,0,0,1,4.625-1.054ZM80.167,0a5.641,5.641,0,0,1,5.56,3.682,4.665,4.665,0,0,1,.215,1.391V8.7h5.707l.151.137q0,3.657-3.92,5.071a7.488,7.488,0,0,1-1.945.249v12.09h1q4.309,0,5.77,3.547a5.022,5.022,0,0,1,.3,1.774l-.148.137H86.076q-4.463,0-5.925-3.686a4.78,4.78,0,0,1-.2-1.387V14.16H74.237l-.153-.108q0-3.662,3.89-5.075A6.949,6.949,0,0,1,79.949,8.7V.138c0-.093.074-.138.214-.138ZM93.341,8.924h13.283q8.6,0,11.245,6.234a7.96,7.96,0,0,1,.454,2.58v8.591q0,3.851-4.437,5.266l-1.245.112H100.849a8.124,8.124,0,0,1-6.807-3.634A4.868,4.868,0,0,1,93.13,25.5V24.473q0-5.155,6.23-6.625l1.489-.115h11.46q0-2.44-2.95-3.412a24.169,24.169,0,0,0-3.738-.221H98.36A5.589,5.589,0,0,1,93.342,11L93.13,9.753v-.61Zm5.564,15.851q0,1.637,3.188,1.749h8.512c1.135-.092,1.7-.612,1.7-1.554V22.92h-11q-2.037,0-2.4,1.632Zm31.843-15.8h13.74c.222.074.333.289.333.639v.634q0,2.946-3.921,4.19l-1.154.108H132.6a6.57,6.57,0,0,0-6.47,3.994l-.336,1.162v.943q0,3.5,4.709,5.265l1.98.224h7.261A4.889,4.889,0,0,1,144.7,29.6l.122.635v1.052l-.457.418h-12.25q-8.091,0-12.22-8.01a12.784,12.784,0,0,1-.575-3.245v-.936q0-5.742,6.807-9.482a11.774,11.774,0,0,1,4.617-1.054ZM150.995,0a5.641,5.641,0,0,1,5.562,3.682,4.755,4.755,0,0,1,.213,1.391V8.7h5.712l.152.137q0,3.657-3.919,5.071a7.491,7.491,0,0,1-1.945.249V26.248h1q4.315,0,5.776,3.547a5.1,5.1,0,0,1,.3,1.773l-.155.137h-6.776q-4.467,0-5.927-3.686a4.909,4.909,0,0,1-.213-1.388V14.16h-5.712l-.151-.108q0-3.662,3.889-5.075a6.967,6.967,0,0,1,1.974-.276V.138c0-.093.071-.138.212-.138ZM68.273,13.843C71.235,25.058,60.5,26.616,57.78,26.828c.86-1.539,3.252-5.668,4.976-6.935a22.483,22.483,0,0,0-5.72,6.481C53.535,13.305,68.273,13.843,68.273,13.843ZM62.249,9.092h.484A12.711,12.711,0,0,1,71.909,13a10.477,10.477,0,0,1,2.98,6.96v.8q0,4.237-3.771,7.786a12.6,12.6,0,0,1-8.145,3.161H62.09a12.8,12.8,0,0,1-8.051-3q-3.953-3.6-3.95-8.037v-.552q0-4.577,4.163-8.18a12.685,12.685,0,0,1,8-2.844Z" fill="#0c6a35" fill-rule="evenodd"/>
      <path id="Path_8" data-name="Path 8" d="M2.786,37.324v8.568h1.14V41.968H8.438v3.924h1.14V37.324H8.438v3.684H3.926V37.324Zm12.8,4.872H12.022a2.064,2.064,0,0,1,.156-.672,1.79,1.79,0,0,1,.36-.564,1.591,1.591,0,0,1,.54-.372,1.754,1.754,0,0,1,.72-.144,1.641,1.641,0,0,1,.7.144,1.741,1.741,0,0,1,.924.924A2,2,0,0,1,15.586,42.2Zm.984,1.728H15.562a1.44,1.44,0,0,1-.552.912,1.738,1.738,0,0,1-1.056.3,2.113,2.113,0,0,1-.876-.168,1.752,1.752,0,0,1-.612-.444,1.818,1.818,0,0,1-.348-.648,2.515,2.515,0,0,1-.1-.78h4.644a4.76,4.76,0,0,0-.108-1.188,3.279,3.279,0,0,0-.456-1.152,2.587,2.587,0,0,0-.876-.864,2.48,2.48,0,0,0-1.368-.348,2.863,2.863,0,0,0-1.176.24,2.831,2.831,0,0,0-.924.672,3.154,3.154,0,0,0-.6,1.02,3.733,3.733,0,0,0-.216,1.3,5.147,5.147,0,0,0,.2,1.308,2.927,2.927,0,0,0,.564,1.032,2.556,2.556,0,0,0,.912.672,3.23,3.23,0,0,0,1.3.24A2.816,2.816,0,0,0,15.67,45.5,2.479,2.479,0,0,0,16.57,43.924Zm1.117-4.236v6.2h1.02v-2.76a4.17,4.17,0,0,1,.12-1.056,2.035,2.035,0,0,1,.384-.792,1.646,1.646,0,0,1,.7-.492,2.885,2.885,0,0,1,1.044-.168v-1.08a2.292,2.292,0,0,0-1.368.336A2.763,2.763,0,0,0,18.671,41h-.024V39.688Zm4.032,0v6.2h1.02V42.028a1.516,1.516,0,0,1,.084-.444,1.9,1.9,0,0,1,.288-.528,1.833,1.833,0,0,1,.516-.432,1.557,1.557,0,0,1,.768-.18,1.265,1.265,0,0,1,.564.108.8.8,0,0,1,.36.288,1.053,1.053,0,0,1,.18.432,2.383,2.383,0,0,1,.06.552v4.068h1.02V42.028a1.557,1.557,0,0,1,.432-1.152,1.605,1.605,0,0,1,1.188-.432,1.412,1.412,0,0,1,.6.108.873.873,0,0,1,.372.3,1.052,1.052,0,0,1,.18.432,2.885,2.885,0,0,1,.048.54v4.068h1.02V41.344a1.928,1.928,0,0,0-.156-.816,1.361,1.361,0,0,0-.42-.564,1.632,1.632,0,0,0-.648-.312,3.013,3.013,0,0,0-.84-.108,2.354,2.354,0,0,0-1.128.276,2.179,2.179,0,0,0-.816.78,1.344,1.344,0,0,0-.66-.816A2.418,2.418,0,0,0,22.7,40.6h-.024v-.912ZM36.258,42.2H32.694a2.064,2.064,0,0,1,.156-.672,1.79,1.79,0,0,1,.36-.564,1.591,1.591,0,0,1,.54-.372,1.754,1.754,0,0,1,.72-.144,1.641,1.641,0,0,1,.7.144,1.741,1.741,0,0,1,.924.924A2,2,0,0,1,36.258,42.2Zm.984,1.728H36.234a1.44,1.44,0,0,1-.552.912,1.738,1.738,0,0,1-1.056.3,2.113,2.113,0,0,1-.876-.168,1.752,1.752,0,0,1-.612-.444,1.818,1.818,0,0,1-.348-.648,2.516,2.516,0,0,1-.1-.78h4.644a4.76,4.76,0,0,0-.108-1.188,3.279,3.279,0,0,0-.456-1.152,2.587,2.587,0,0,0-.876-.864,2.48,2.48,0,0,0-1.368-.348,2.863,2.863,0,0,0-1.176.24,2.831,2.831,0,0,0-.924.672,3.154,3.154,0,0,0-.6,1.02,3.733,3.733,0,0,0-.216,1.3,5.147,5.147,0,0,0,.2,1.308,2.927,2.927,0,0,0,.564,1.032,2.556,2.556,0,0,0,.912.672,3.23,3.23,0,0,0,1.3.24,2.816,2.816,0,0,0,1.752-.528A2.479,2.479,0,0,0,37.242,43.924Zm2.569-4.236v-1.86h-1.02v1.86H37.735v.9h1.056v3.948a2.357,2.357,0,0,0,.084.7.869.869,0,0,0,.252.408,1.088,1.088,0,0,0,.456.2,4.223,4.223,0,0,0,.684.048h.78v-.9h-.468q-.24,0-.4-.012a.544.544,0,0,1-.228-.084.326.326,0,0,1-.12-.168,1.38,1.38,0,0,1-.024-.288V40.588h1.236v-.9Zm3.449-1.116V37.324H42.24v1.248Zm-1.02,1.116v6.2h1.02v-6.2Zm6.812,1.992h1.056a2.4,2.4,0,0,0-.288-.948,2.077,2.077,0,0,0-.588-.672,2.263,2.263,0,0,0-.816-.384,3.525,3.525,0,0,0-.984-.132,2.945,2.945,0,0,0-1.284.264,2.53,2.53,0,0,0-.924.708,3,3,0,0,0-.54,1.056,4.491,4.491,0,0,0-.18,1.3,4.369,4.369,0,0,0,.18,1.284,2.939,2.939,0,0,0,.552,1,2.5,2.5,0,0,0,.912.648,3.277,3.277,0,0,0,1.26.228A2.673,2.673,0,0,0,49.28,45.4a2.842,2.842,0,0,0,.864-1.776H49.1a1.773,1.773,0,0,1-.528,1.116,1.647,1.647,0,0,1-1.176.4,1.689,1.689,0,0,1-.828-.192,1.634,1.634,0,0,1-.564-.5,2.429,2.429,0,0,1-.324-.732,3.655,3.655,0,0,1-.1-.84,4.137,4.137,0,0,1,.1-.9,2.345,2.345,0,0,1,.312-.78,1.7,1.7,0,0,1,.6-.54,1.9,1.9,0,0,1,.924-.2,1.428,1.428,0,0,1,1.536,1.236Zm6.881-.252V38.284h2.232a2.051,2.051,0,0,1,1.416.408,1.458,1.458,0,0,1,.456,1.164,1.5,1.5,0,0,1-.456,1.176,2.012,2.012,0,0,1-1.416.4Zm-1.14-4.1v8.568h1.14v-3.5h2.616a2.589,2.589,0,0,0,1.956-.66,2.53,2.53,0,0,0,.672-1.872A2.489,2.489,0,0,0,60.505,38a2.625,2.625,0,0,0-1.956-.672ZM67.9,45.868a1.443,1.443,0,0,1-.732.156.915.915,0,0,1-.636-.216,1,1,0,0,1-.228-.732,2.484,2.484,0,0,1-.984.732,3.265,3.265,0,0,1-1.2.216,3.3,3.3,0,0,1-.8-.1,1.859,1.859,0,0,1-.648-.3,1.508,1.508,0,0,1-.444-.528,1.9,1.9,0,0,1-.156-.8,1.822,1.822,0,0,1,.18-.864,1.539,1.539,0,0,1,.468-.54,2.18,2.18,0,0,1,.672-.324q.384-.108.78-.18a7.963,7.963,0,0,1,.792-.12,5.733,5.733,0,0,0,.672-.12,1.217,1.217,0,0,0,.456-.228.576.576,0,0,0,.168-.444.981.981,0,0,0-.132-.54.81.81,0,0,0-.324-.312,1.261,1.261,0,0,0-.444-.144,3.232,3.232,0,0,0-.48-.036,2.115,2.115,0,0,0-1.08.252,1.028,1.028,0,0,0-.468.924h-1.02a2.2,2.2,0,0,1,.24-.972,1.767,1.767,0,0,1,.576-.636,2.353,2.353,0,0,1,.816-.36,4.42,4.42,0,0,1,1-.108,5.683,5.683,0,0,1,.828.06,2.11,2.11,0,0,1,.756.252,1.393,1.393,0,0,1,.54.516,1.671,1.671,0,0,1,.2.876V44.44a2.775,2.775,0,0,0,.036.528q.048.168.288.168a1.01,1.01,0,0,0,.312-.06Zm-1.656-3.18a1.332,1.332,0,0,1-.5.216q-.312.06-.66.108t-.684.1a2.373,2.373,0,0,0-.624.168,1.16,1.16,0,0,0-.456.348.956.956,0,0,0-.168.6.907.907,0,0,0,.1.432.967.967,0,0,0,.264.276,1.175,1.175,0,0,0,.384.156,2.1,2.1,0,0,0,.456.048A2.516,2.516,0,0,0,65.215,45a1.971,1.971,0,0,0,.588-.348,1.458,1.458,0,0,0,.336-.456,1.2,1.2,0,0,0,.108-.468Zm6.817-1.008H74.12a2.4,2.4,0,0,0-.288-.948,2.077,2.077,0,0,0-.588-.672,2.263,2.263,0,0,0-.816-.384,3.525,3.525,0,0,0-.984-.132,2.945,2.945,0,0,0-1.284.264,2.53,2.53,0,0,0-.924.708,3,3,0,0,0-.54,1.056,4.491,4.491,0,0,0-.18,1.3,4.369,4.369,0,0,0,.18,1.284,2.939,2.939,0,0,0,.552,1,2.5,2.5,0,0,0,.912.648,3.277,3.277,0,0,0,1.26.228,2.673,2.673,0,0,0,1.872-.624,2.842,2.842,0,0,0,.864-1.776H73.112a1.773,1.773,0,0,1-.528,1.116,1.647,1.647,0,0,1-1.176.4,1.689,1.689,0,0,1-.828-.192,1.634,1.634,0,0,1-.564-.5,2.429,2.429,0,0,1-.324-.732,3.655,3.655,0,0,1-.1-.84,4.137,4.137,0,0,1,.1-.9,2.345,2.345,0,0,1,.312-.78,1.7,1.7,0,0,1,.6-.54,1.9,1.9,0,0,1,.924-.2,1.428,1.428,0,0,1,1.536,1.236Zm2.293-4.356v8.568h1.02V43.54l.96-.888,2.124,3.24h1.3l-2.64-3.948,2.46-2.256H79.209L76.377,42.4V37.324Zm11.659,8.544a1.443,1.443,0,0,1-.732.156.915.915,0,0,1-.636-.216,1,1,0,0,1-.228-.732,2.484,2.484,0,0,1-.984.732,3.265,3.265,0,0,1-1.2.216,3.3,3.3,0,0,1-.8-.1,1.859,1.859,0,0,1-.648-.3,1.508,1.508,0,0,1-.444-.528,1.9,1.9,0,0,1-.156-.8,1.822,1.822,0,0,1,.18-.864,1.54,1.54,0,0,1,.468-.54,2.18,2.18,0,0,1,.672-.324q.384-.108.78-.18a7.963,7.963,0,0,1,.792-.12,5.734,5.734,0,0,0,.672-.12,1.217,1.217,0,0,0,.456-.228.576.576,0,0,0,.168-.444.981.981,0,0,0-.132-.54.81.81,0,0,0-.324-.312,1.261,1.261,0,0,0-.444-.144,3.232,3.232,0,0,0-.48-.036,2.115,2.115,0,0,0-1.08.252,1.028,1.028,0,0,0-.468.924h-1.02a2.2,2.2,0,0,1,.24-.972,1.767,1.767,0,0,1,.576-.636,2.353,2.353,0,0,1,.816-.36,4.42,4.42,0,0,1,1-.108,5.683,5.683,0,0,1,.828.06,2.11,2.11,0,0,1,.756.252,1.393,1.393,0,0,1,.54.516,1.671,1.671,0,0,1,.2.876V44.44a2.774,2.774,0,0,0,.036.528q.048.168.288.168a1.01,1.01,0,0,0,.312-.06Zm-1.656-3.18a1.332,1.332,0,0,1-.5.216q-.312.06-.66.108t-.684.1a2.373,2.373,0,0,0-.624.168,1.16,1.16,0,0,0-.456.348.956.956,0,0,0-.168.6.907.907,0,0,0,.1.432.967.967,0,0,0,.264.276,1.175,1.175,0,0,0,.384.156,2.1,2.1,0,0,0,.456.048A2.516,2.516,0,0,0,84.328,45a1.972,1.972,0,0,0,.588-.348,1.458,1.458,0,0,0,.336-.456,1.2,1.2,0,0,0,.108-.468Zm7.957,2.676V39.688h-.96v.888h-.012a1.78,1.78,0,0,0-.768-.768,2.248,2.248,0,0,0-1.08-.264,2.72,2.72,0,0,0-1.356.312,2.548,2.548,0,0,0-.888.78,3.025,3.025,0,0,0-.48,1.056,4.641,4.641,0,0,0-.144,1.128,4.307,4.307,0,0,0,.168,1.212,3.047,3.047,0,0,0,.528,1,2.57,2.57,0,0,0,.864.672,2.733,2.733,0,0,0,1.212.252,2.488,2.488,0,0,0,1.128-.264,1.738,1.738,0,0,0,.8-.852h.024v.408a3.906,3.906,0,0,1-.108.948,1.859,1.859,0,0,1-.324.732,1.523,1.523,0,0,1-.576.48,1.838,1.838,0,0,1-.852.18,2.486,2.486,0,0,1-.528-.06,1.859,1.859,0,0,1-.516-.168,1.368,1.368,0,0,1-.4-.312.774.774,0,0,1-.168-.468h-1.02a1.6,1.6,0,0,0,.264.852,1.923,1.923,0,0,0,.6.564,2.786,2.786,0,0,0,.816.312,4.305,4.305,0,0,0,.888.1,2.836,2.836,0,0,0,2.184-.756A3.267,3.267,0,0,0,93.317,45.364Zm-2.856-.3a1.594,1.594,0,0,1-.84-.2,1.7,1.7,0,0,1-.54-.552,2.461,2.461,0,0,1-.288-.768,4.274,4.274,0,0,1-.084-.84,3.709,3.709,0,0,1,.1-.852,2.276,2.276,0,0,1,.324-.72,1.631,1.631,0,0,1,.576-.492,1.715,1.715,0,0,1,.84-.192,1.62,1.62,0,0,1,.816.192,1.518,1.518,0,0,1,.54.516,2.1,2.1,0,0,1,.312.708,3.4,3.4,0,0,1,.1.8,3.551,3.551,0,0,1-.108.864,2.491,2.491,0,0,1-.312.78,1.731,1.731,0,0,1-.576.552A1.659,1.659,0,0,1,90.461,45.064Zm5.475-6.492V37.324h-1.02v1.248Zm-1.02,1.116v6.2h1.02v-6.2Zm2.6,0v6.2h1.02v-3.5a2.582,2.582,0,0,1,.108-.768A1.826,1.826,0,0,1,98.992,41a1.529,1.529,0,0,1,.564-.408,2.124,2.124,0,0,1,.816-.144,1.249,1.249,0,0,1,.924.336,1.232,1.232,0,0,1,.336.912v4.2h1.02v-4.08a3.565,3.565,0,0,0-.108-.912,1.614,1.614,0,0,0-1.008-1.188,2.692,2.692,0,0,0-1.02-.168A2.148,2.148,0,0,0,98.5,40.672h-.024v-.984Zm12.02,5.676V39.688h-.96v.888h-.012a1.78,1.78,0,0,0-.768-.768,2.248,2.248,0,0,0-1.08-.264,2.72,2.72,0,0,0-1.356.312,2.548,2.548,0,0,0-.888.78,3.025,3.025,0,0,0-.48,1.056,4.641,4.641,0,0,0-.144,1.128,4.307,4.307,0,0,0,.168,1.212,3.047,3.047,0,0,0,.528,1,2.57,2.57,0,0,0,.864.672,2.733,2.733,0,0,0,1.212.252,2.488,2.488,0,0,0,1.128-.264,1.738,1.738,0,0,0,.8-.852h.024v.408a3.906,3.906,0,0,1-.108.948,1.859,1.859,0,0,1-.324.732,1.523,1.523,0,0,1-.576.48,1.838,1.838,0,0,1-.852.18,2.486,2.486,0,0,1-.528-.06,1.859,1.859,0,0,1-.516-.168,1.368,1.368,0,0,1-.4-.312.774.774,0,0,1-.168-.468h-1.02a1.6,1.6,0,0,0,.264.852,1.923,1.923,0,0,0,.6.564,2.786,2.786,0,0,0,.816.312,4.305,4.305,0,0,0,.888.1,2.836,2.836,0,0,0,2.184-.756A3.267,3.267,0,0,0,109.536,45.364Zm-2.856-.3a1.594,1.594,0,0,1-.84-.2,1.7,1.7,0,0,1-.54-.552,2.461,2.461,0,0,1-.288-.768,4.274,4.274,0,0,1-.084-.84,3.708,3.708,0,0,1,.1-.852,2.276,2.276,0,0,1,.324-.72,1.631,1.631,0,0,1,.576-.492,1.715,1.715,0,0,1,.84-.192,1.62,1.62,0,0,1,.816.192,1.518,1.518,0,0,1,.54.516,2.1,2.1,0,0,1,.312.708,3.4,3.4,0,0,1,.1.8,3.551,3.551,0,0,1-.108.864,2.491,2.491,0,0,1-.312.78,1.731,1.731,0,0,1-.576.552A1.659,1.659,0,0,1,106.68,45.064Zm12.858-5.232h1.08a2.91,2.91,0,0,0-.276-1.212,2.278,2.278,0,0,0-.672-.852,2.712,2.712,0,0,0-.984-.492,4.578,4.578,0,0,0-1.224-.156,4.3,4.3,0,0,0-1.152.156,3.059,3.059,0,0,0-1,.456,2.259,2.259,0,0,0-.7.78,2.236,2.236,0,0,0-.264,1.116,1.946,1.946,0,0,0,.228.984,2.057,2.057,0,0,0,.624.636,4.093,4.093,0,0,0,.888.4q.492.144,1,.264t1.008.216a4.168,4.168,0,0,1,.876.288,1.6,1.6,0,0,1,.624.444,1.058,1.058,0,0,1,.24.72,1.4,1.4,0,0,1-.192.768,1.449,1.449,0,0,1-.5.48,2.383,2.383,0,0,1-.708.24,4.159,4.159,0,0,1-.768.072,3.662,3.662,0,0,1-.936-.12,2.4,2.4,0,0,1-.8-.372,1.818,1.818,0,0,1-.756-1.572h-1.08a3.108,3.108,0,0,0,.276,1.356,2.746,2.746,0,0,0,.768.936,3.509,3.509,0,0,0,1.128.54,5.089,5.089,0,0,0,1.368.18,4.928,4.928,0,0,0,1.176-.144,3.4,3.4,0,0,0,1.08-.432,2.541,2.541,0,0,0,.78-.792,2.15,2.15,0,0,0,.312-1.176,2.1,2.1,0,0,0-.24-1.056,2,2,0,0,0-.624-.7,3.087,3.087,0,0,0-.876-.432,10.425,10.425,0,0,0-1.008-.288q-.5-.12-1-.216a5.847,5.847,0,0,1-.888-.264,1.858,1.858,0,0,1-.624-.4.929.929,0,0,1-.228-.648,1.4,1.4,0,0,1,.156-.7,1.315,1.315,0,0,1,.432-.456,1.949,1.949,0,0,1,.624-.24,3.485,3.485,0,0,1,.708-.072,2.367,2.367,0,0,1,1.452.42A1.756,1.756,0,0,1,119.538,39.832Zm3.4,2.964a3.148,3.148,0,0,1,.144-1,2.231,2.231,0,0,1,.42-.744,1.779,1.779,0,0,1,.612-.456,1.881,1.881,0,0,1,.756-.156,1.8,1.8,0,0,1,.744.156,1.749,1.749,0,0,1,.624.456,2.082,2.082,0,0,1,.408.744,2.925,2.925,0,0,1,.156,1,3.031,3.031,0,0,1-.156,1.008,2.1,2.1,0,0,1-.408.732,1.817,1.817,0,0,1-.624.444,1.8,1.8,0,0,1-.744.156,1.881,1.881,0,0,1-.756-.156,1.85,1.85,0,0,1-.612-.444,2.252,2.252,0,0,1-.42-.732A3.262,3.262,0,0,1,122.94,42.8Zm-1.08,0a4.075,4.075,0,0,0,.192,1.272,2.966,2.966,0,0,0,.576,1.032,2.75,2.75,0,0,0,.948.684,3.285,3.285,0,0,0,1.3.24,3.23,3.23,0,0,0,1.3-.24,2.75,2.75,0,0,0,.948-.684,2.966,2.966,0,0,0,.576-1.032,4.309,4.309,0,0,0,0-2.544,2.829,2.829,0,0,0-.576-1.032,2.679,2.679,0,0,0-.948-.7,3.1,3.1,0,0,0-1.3-.252,3.148,3.148,0,0,0-1.3.252,2.679,2.679,0,0,0-.948.7,2.829,2.829,0,0,0-.576,1.032A4.075,4.075,0,0,0,121.86,42.8Zm7.286-5.472v8.568h1.02V37.324Zm7.737,8.568v-6.2h-1.02v3.5a2.452,2.452,0,0,1-.12.78,1.691,1.691,0,0,1-.336.612,1.509,1.509,0,0,1-.576.408,2.034,2.034,0,0,1-.8.144,1.249,1.249,0,0,1-.924-.336,1.232,1.232,0,0,1-.336-.912v-4.2h-1.02v4.08a4.149,4.149,0,0,0,.1.924,1.8,1.8,0,0,0,.36.708,1.677,1.677,0,0,0,.66.468,2.879,2.879,0,0,0,1.02.156,2.527,2.527,0,0,0,1.188-.264,2.126,2.126,0,0,0,.828-.852h.024v.984Zm2.947-6.2v-1.86h-1.02v1.86h-1.056v.9h1.056v3.948a2.357,2.357,0,0,0,.084.7.869.869,0,0,0,.252.408,1.088,1.088,0,0,0,.456.2,4.223,4.223,0,0,0,.684.048h.78v-.9H140.6q-.24,0-.4-.012a.544.544,0,0,1-.228-.084.326.326,0,0,1-.12-.168,1.38,1.38,0,0,1-.024-.288V40.588h1.236v-.9Zm3.45-1.116V37.324h-1.02v1.248Zm-1.02,1.116v6.2h1.02v-6.2ZM145.6,42.8a3.148,3.148,0,0,1,.144-1,2.231,2.231,0,0,1,.42-.744,1.778,1.778,0,0,1,.612-.456,1.881,1.881,0,0,1,.756-.156,1.8,1.8,0,0,1,.744.156,1.749,1.749,0,0,1,.624.456,2.082,2.082,0,0,1,.408.744,2.925,2.925,0,0,1,.156,1,3.03,3.03,0,0,1-.156,1.008,2.1,2.1,0,0,1-.408.732,1.817,1.817,0,0,1-.624.444,1.8,1.8,0,0,1-.744.156,1.881,1.881,0,0,1-.756-.156,1.85,1.85,0,0,1-.612-.444,2.252,2.252,0,0,1-.42-.732A3.262,3.262,0,0,1,145.6,42.8Zm-1.08,0a4.075,4.075,0,0,0,.192,1.272,2.965,2.965,0,0,0,.576,1.032,2.75,2.75,0,0,0,.948.684,3.285,3.285,0,0,0,1.3.24,3.23,3.23,0,0,0,1.3-.24,2.75,2.75,0,0,0,.948-.684,2.966,2.966,0,0,0,.576-1.032,4.309,4.309,0,0,0,0-2.544,2.829,2.829,0,0,0-.576-1.032,2.679,2.679,0,0,0-.948-.7,3.1,3.1,0,0,0-1.3-.252,3.148,3.148,0,0,0-1.3.252,2.679,2.679,0,0,0-.948.7,2.828,2.828,0,0,0-.576,1.032A4.075,4.075,0,0,0,144.524,42.8Zm7.226-3.108v6.2h1.02v-3.5a2.582,2.582,0,0,1,.108-.768,1.826,1.826,0,0,1,.348-.624,1.529,1.529,0,0,1,.564-.408,2.124,2.124,0,0,1,.816-.144,1.249,1.249,0,0,1,.924.336,1.232,1.232,0,0,1,.336.912v4.2h1.02v-4.08a3.565,3.565,0,0,0-.108-.912,1.614,1.614,0,0,0-1.008-1.188,2.692,2.692,0,0,0-1.02-.168,2.148,2.148,0,0,0-2.016,1.128h-.024v-.984Zm7.292,4.248h-1.02a2.287,2.287,0,0,0,.24.984,1.874,1.874,0,0,0,.576.648,2.485,2.485,0,0,0,.828.348,4.364,4.364,0,0,0,.984.108,4.647,4.647,0,0,0,.936-.1,2.408,2.408,0,0,0,.852-.312,1.759,1.759,0,0,0,.612-.6,1.694,1.694,0,0,0,.24-.936,1.424,1.424,0,0,0-.636-1.236,2.235,2.235,0,0,0-.648-.324,7.25,7.25,0,0,0-.744-.2q-.36-.084-.72-.156a5.249,5.249,0,0,1-.648-.192,1.737,1.737,0,0,1-.48-.288.6.6,0,0,1-.18-.444.581.581,0,0,1,.12-.384.78.78,0,0,1,.312-.24,1.433,1.433,0,0,1,.42-.132,3.154,3.154,0,0,1,.468-.036,2.021,2.021,0,0,1,.492.06,1.413,1.413,0,0,1,.456.168,1,1,0,0,1,.492.816h1.02a2.233,2.233,0,0,0-.24-.936,1.54,1.54,0,0,0-.552-.6,2.05,2.05,0,0,0-.78-.312,4.6,4.6,0,0,0-.972-.1,3.316,3.316,0,0,0-.828.108,2.367,2.367,0,0,0-.744.312,1.739,1.739,0,0,0-.54.54,1.52,1.52,0,0,0-.2.8,1.357,1.357,0,0,0,.3.936,2.1,2.1,0,0,0,.744.528,5.892,5.892,0,0,0,.984.288,9.185,9.185,0,0,1,.972.228,2.446,2.446,0,0,1,.756.324.679.679,0,0,1,.3.6.777.777,0,0,1-.144.48.927.927,0,0,1-.372.276,1.763,1.763,0,0,1-.48.132,3.735,3.735,0,0,1-.5.036,3.113,3.113,0,0,1-.612-.06,1.887,1.887,0,0,1-.528-.192,1.09,1.09,0,0,1-.528-.948Z" fill="#231f20"/>
    </g>
    <g id="Group_2" data-name="Group 2" transform="translate(0 7)">
      <g id="Ellipse_1" data-name="Ellipse 1" transform="translate(2711 -878)" fill="none" stroke="#000" stroke-width="0.5">
        <circle cx="2.5" cy="2.5" r="2.5" stroke="none"/>
        <circle cx="2.5" cy="2.5" r="2.25" fill="none"/>
      </g>
      <text id="R" transform="translate(2712 -874)" font-size="4.6" font-family="Campton-Medium, Campton" font-weight="500"><tspan x="0" y="0">R</tspan></text>
    </g>
  </g>
</svg>
