<svg width="34" height="25" viewBox="0 0 34 25" fill="none" xmlns="http://www.w3.org/2000/svg">
<path d="M33.2827 3.90306C33.0892 3.14801 32.7104 2.45958 32.184 1.90668C31.6577 1.35377 31.0023 0.955787 30.2836 0.752551C27.6366 2.28079e-07 17 0 17 0C17 0 6.36343 2.28079e-07 3.71643 0.752551C2.99766 0.955787 2.34231 1.35377 1.81597 1.90668C1.28964 2.45958 0.910773 3.14801 0.717304 3.90306C0.22305 6.73886 -0.0167981 9.61712 0.000913623 12.5C-0.0167981 15.3829 0.22305 18.2611 0.717304 21.0969C0.910773 21.852 1.28964 22.5404 1.81597 23.0933C2.34231 23.6462 2.99766 24.0442 3.71643 24.2474C6.36343 25 17 25 17 25C17 25 27.6366 25 30.2836 24.2474C31.0023 24.0442 31.6577 23.6462 32.184 23.0933C32.7104 22.5404 33.0892 21.852 33.2827 21.0969C33.7769 18.2611 34.0168 15.3829 33.9991 12.5C34.0168 9.61712 33.7769 6.73886 33.2827 3.90306V3.90306ZM13.6002 17.8571V7.14286L22.4276 12.5L13.6002 17.8571Z" fill="#0C6A35"/>
</svg>
